<svg width="18" height="22" viewBox="0 0 18 22" fill="none" xmlns="http://www.w3.org/2000/svg">
<path d="M14.9391 11.4156C14.9297 9.69531 15.7078 8.39688 17.2828 7.44063C16.4016 6.17969 15.0703 5.48594 13.3125 5.35C11.6484 5.21875 9.82969 6.32031 9.16406 6.32031C8.46094 6.32031 6.84844 5.39688 5.58281 5.39688C2.96719 5.43906 0.1875 7.48281 0.1875 11.6406C0.1875 12.8688 0.4125 14.1375 0.8625 15.4469C1.4625 17.1672 3.62812 21.3859 5.8875 21.3156C7.06875 21.2875 7.90312 20.4766 9.44062 20.4766C10.9312 20.4766 11.7047 21.3156 13.0219 21.3156C15.3 21.2828 17.2594 17.4484 17.8312 15.7234C14.775 14.2844 14.9391 11.5047 14.9391 11.4156ZM12.2859 3.71875C13.5656 2.2 13.4484 0.817188 13.4109 0.320312C12.2812 0.385938 10.9734 1.08906 10.2281 1.95625C9.40781 2.88438 8.925 4.03281 9.02813 5.32656C10.2516 5.42031 11.3672 4.79219 12.2859 3.71875Z" fill="white"/>
</svg>
